<svg width="28" height="28" viewBox="0 0 28 28" fill="none" xmlns="http://www.w3.org/2000/svg">
<g clip-path="url(#clip0)">
<path d="M25.4546 0H2.54548C1.14158 0 0 1.14158 0 2.54548V25.4546C0 26.8584 1.14158 28.0001 2.54548 28.0001H25.4546C26.8584 28.0001 28.0001 26.8585 28.0001 25.4546V2.54548C28 1.14158 26.8584 0 25.4546 0ZM26.7273 25.4546C26.7273 26.1562 26.1562 26.7273 25.4546 26.7273H2.54548C1.84388 26.7273 1.27277 26.1562 1.27277 25.4546V2.54548C1.27277 1.84388 1.84388 1.27277 2.54548 1.27277H25.4546C26.1562 1.27277 26.7273 1.84388 26.7273 2.54548V25.4546Z" fill="white"/>
<path d="M15.9096 15.271H14.6369V4.45279C14.6369 4.10104 14.3523 3.81641 14.0006 3.81641C13.6488 3.81641 13.3642 4.10104 13.3642 4.45279V15.271H12.0915C11.7397 15.271 11.4551 15.5556 11.4551 15.9073V18.4528C11.4551 18.8046 11.7397 19.0892 12.0915 19.0892H13.3642V23.5438C13.3642 23.8955 13.6488 24.1802 14.0006 24.1802C14.3523 24.1802 14.6369 23.8955 14.6369 23.5438V19.0891H15.9096C16.2614 19.0891 16.546 18.8045 16.546 18.4528V15.9073C16.546 15.5556 16.2613 15.271 15.9096 15.271ZM15.2733 17.8164H12.7278V16.5437H15.2733V17.8164Z" fill="white"/>
<path d="M23.5464 8.9073H22.2737V4.45279C22.2737 4.10104 21.989 3.81641 21.6373 3.81641C21.2855 3.81641 21.0009 4.10104 21.0009 4.45279V8.90736H19.7282C19.3764 8.90736 19.0918 9.19199 19.0918 9.54374V12.0892C19.0918 12.441 19.3764 12.7256 19.7282 12.7256H21.0009V23.5438C21.0009 23.8955 21.2855 24.1802 21.6373 24.1802C21.989 24.1802 22.2737 23.8955 22.2737 23.5438V12.7255H23.5464C23.8981 12.7255 24.1827 12.4409 24.1827 12.0891V9.54368C24.1827 9.19193 23.8981 8.9073 23.5464 8.9073ZM22.91 11.4528H20.3645V10.1801H22.91V11.4528Z" fill="white"/>
<path d="M8.27293 7.63459H7.00022V4.45279C7.00022 4.10104 6.71559 3.81641 6.36384 3.81641C6.01209 3.81641 5.72745 4.10104 5.72745 4.45279V7.63459H4.45474C4.10299 7.63459 3.81836 7.91923 3.81836 8.27098V10.8165C3.81836 11.1681 4.10299 11.4528 4.45474 11.4528H5.72745V23.5437C5.72745 23.8955 6.01209 24.1801 6.36384 24.1801C6.71559 24.1801 7.00022 23.8955 7.00022 23.5437V11.4528H8.27293C8.62468 11.4528 8.90931 11.1681 8.90931 10.8164V8.27092C8.90925 7.91922 8.62462 7.63459 8.27293 7.63459ZM7.63654 10.1801H5.09107V8.90736H7.63654V10.1801Z" fill="white"/>
</g>
<defs>
<clipPath id="clip0">
<rect width="28" height="28" fill="white"/>
</clipPath>
</defs>
</svg>
