<?xml version="1.0" encoding="utf-8"?><svg width="154" height="32" fill="none" xmlns="http://www.w3.org/2000/svg" viewBox="0 0 154 32"><path d="M54 9.126h5.858c1.521 0 2.864.316 4.03.949a6.655 6.655 0 012.712 2.612c.645 1.11.967 2.38.967 3.813 0 1.433-.322 2.71-.966 3.834-.645 1.11-1.549 1.98-2.714 2.613-1.165.618-2.508.927-4.029.927H54V9.126zm5.776 13.4c1.26 0 2.364-.253 3.31-.759a5.602 5.602 0 002.199-2.128c.52-.913.781-1.96.781-3.139 0-1.18-.26-2.219-.781-3.118a5.418 5.418 0 00-2.2-2.128c-.945-.52-2.048-.78-3.309-.78h-4.255v12.051h4.255zM72.84 24a4.852 4.852 0 01-2.282-.548 4.485 4.485 0 01-1.706-1.559l.904-1.053c.795 1.208 1.83 1.812 3.104 1.812 1.782 0 2.672-1.082 2.672-3.245v-8.932H70.27V9.126h6.763v10.218c0 1.545-.356 2.71-1.069 3.497-.699.773-1.74 1.16-3.124 1.16zM86.18 24a9.129 9.129 0 01-3.084-.527c-.973-.35-1.726-.814-2.26-1.39l.595-1.201c.521.534 1.213.97 2.076 1.306a7.567 7.567 0 002.672.485c1.289 0 2.255-.239 2.899-.716.644-.492.966-1.124.966-1.897 0-.59-.178-1.06-.534-1.411a3.322 3.322 0 00-1.275-.8c-.507-.197-1.213-.408-2.117-.633-1.083-.28-1.946-.547-2.59-.8a4.44 4.44 0 01-1.665-1.201c-.452-.534-.678-1.257-.678-2.17 0-.744.191-1.419.575-2.022.384-.618.973-1.11 1.768-1.475S85.309 9 86.488 9c.822 0 1.624.12 2.405.358.795.225 1.48.54 2.055.948l-.513 1.243a6.768 6.768 0 00-1.933-.906 6.832 6.832 0 00-2.014-.316c-1.26 0-2.213.253-2.857.759-.63.491-.946 1.13-.946 1.917 0 .59.171 1.067.514 1.432.356.351.795.625 1.316.822.534.183 1.247.386 2.137.611 1.055.267 1.905.534 2.55.8a4.053 4.053 0 011.664 1.18c.452.52.678 1.23.678 2.128 0 .745-.198 1.426-.596 2.044-.383.604-.98 1.088-1.788 1.453-.808.351-1.802.527-2.98.527zM98.07 10.475h-5.056V9.126h11.634v1.349h-5.057v13.399h-1.52v-13.4zM113.784 24c-1.425 0-2.72-.323-3.885-.97a7.23 7.23 0 01-2.713-2.696c-.644-1.137-.967-2.415-.967-3.834 0-1.418.323-2.697.967-3.834a7.075 7.075 0 012.713-2.676c1.165-.66 2.46-.99 3.885-.99 1.425 0 2.706.323 3.844.97a7.04 7.04 0 012.713 2.696c.658 1.137.987 2.415.987 3.834s-.329 2.704-.987 3.855a7.082 7.082 0 01-2.713 2.676c-1.138.646-2.419.969-3.844.969zm0-1.39c1.137 0 2.165-.26 3.083-.78a5.75 5.75 0 002.159-2.191c.52-.941.781-1.987.781-3.139 0-1.152-.261-2.191-.781-3.118a5.56 5.56 0 00-2.159-2.191c-.918-.534-1.946-.8-3.083-.8-1.138 0-2.172.266-3.104.8a5.704 5.704 0 00-2.179 2.191c-.521.927-.781 1.966-.781 3.118s.26 2.198.781 3.139a5.902 5.902 0 002.179 2.191c.932.52 1.966.78 3.104.78zM135.179 23.874l-3.288-4.74c-.37.042-.754.063-1.152.063h-3.864v4.677h-1.521V9.126h5.385c1.837 0 3.276.45 4.317 1.349 1.042.899 1.562 2.135 1.562 3.708 0 1.151-.288 2.128-.863 2.928-.562.787-1.37 1.355-2.426 1.706l3.515 5.057h-1.665zm-4.481-6.005c1.425 0 2.515-.323 3.269-.969.753-.646 1.13-1.552 1.13-2.717 0-1.194-.377-2.107-1.13-2.74-.754-.645-1.844-.968-3.269-.968h-3.823v7.394h3.823zM151 22.525v1.349h-10.175V9.126h9.867v1.349h-8.346v5.246h7.441v1.327h-7.441v5.477H151z" fill="#2B2D3A"/><path d="M45 6H5a3 3 0 00-3 3v14a3 3 0 003 3h40a3 3 0 003-3V9a3 3 0 00-3-3z" fill="#397DFF"/><path d="M15.58 12.056c.903 0 1.612.235 2.126.706.514.463.77 1.109.77 1.938 0 .822-.256 1.468-.77 1.939-.514.463-1.223.694-2.127.694h-2.055V19.9H13v-7.843h2.58zm0 4.762c.766 0 1.352-.183 1.756-.55.404-.365.606-.888.606-1.568s-.202-1.202-.606-1.568c-.404-.374-.99-.56-1.757-.56h-2.055v4.246h2.055zM25.033 19.9l-1.716-2.623a4.812 4.812 0 01-.698.056h-2.056V19.9h-.524v-7.843h2.58c.904 0 1.613.235 2.127.706.513.463.77 1.109.77 1.938 0 .62-.147 1.143-.442 1.569-.287.418-.702.713-1.243.885l1.798 2.745h-.596zm-2.415-3.071c.768 0 1.353-.183 1.758-.549.404-.374.606-.9.606-1.58s-.202-1.202-.606-1.568c-.405-.374-.99-.56-1.758-.56h-2.055v4.257h2.056zM30.281 19.955a3.623 3.623 0 01-1.911-.515 3.765 3.765 0 01-1.346-1.434c-.322-.605-.483-1.281-.483-2.028 0-.747.16-1.423.483-2.028a3.68 3.68 0 011.346-1.423A3.564 3.564 0 0130.28 12c.706 0 1.343.172 1.911.515a3.607 3.607 0 011.336 1.423c.329.605.493 1.285.493 2.04 0 .754-.164 1.434-.493 2.039a3.608 3.608 0 01-1.336 1.423 3.623 3.623 0 01-1.91.515zm0-.526c.603 0 1.148-.15 1.634-.449.486-.298.87-.71 1.15-1.232.282-.53.422-1.12.422-1.77 0-.65-.14-1.237-.421-1.76a3.163 3.163 0 00-1.151-1.243 3.058 3.058 0 00-1.634-.448c-.603 0-1.15.149-1.644.448-.486.299-.87.713-1.15 1.244a3.657 3.657 0 00-.422 1.759c0 .65.14 1.24.421 1.77.281.523.665.934 1.151 1.232a3.112 3.112 0 001.644.449zM35.829 20c-.33 0-.607-.12-.833-.358-.226-.24-.339-.542-.339-.908 0-.374.11-.676.329-.908a1.13 1.13 0 01.843-.347c.342 0 .623.116.842.347.22.232.329.534.329.908 0 .366-.113.668-.34.907a1.08 1.08 0 01-.831.359z" fill="#fff"/></svg>